<svg width="18" height="20" viewBox="0 0 18 20" fill="none" xmlns="http://www.w3.org/2000/svg">
<path d="M4.46609 3.77026C1.9945 -0.0447168 7.73548 -1.38383 8.90262 1.72729C10.0697 -1.38392 15.8109 -0.0448041 13.3391 3.77026L8.90262 10.3025L4.46609 3.77026Z" fill="#0A0A0A"/>
<path d="M14.0347 5.59854C17.8494 3.12731 19.1885 8.86778 16.0776 10.0351C19.1887 11.2022 17.8497 16.9433 14.0347 14.4716L7.50146 10.0351L14.0347 5.59854Z" fill="#0A0A0A"/>
<path d="M3.77002 14.4719C-0.0448664 16.9434 -1.38391 11.2026 1.72705 10.0354C-1.38389 8.86818 -0.0448457 3.12747 3.77002 5.59889L10.3022 10.0354L3.77002 14.4719Z" fill="#0A0A0A"/>
<path d="M8.90283 10.3042L8.77794 12.1265C8.60703 14.6203 9.40775 17.0835 11.0124 19.0002" stroke="#0A0A0A" stroke-width="1.05097" stroke-linecap="round"/>
</svg>
